<mxfile host="app.diagrams.net" modified="2022-02-03T10:32:33.298Z" agent="5.0 (Windows NT 10.0; Win64; x64) AppleWebKit/537.36 (KHTML, like Gecko) Chrome/97.0.4692.99 Safari/537.36" etag="KmWfSVm9yremcNbHJ7TB" version="16.5.2" type="github">
  <diagram id="1Wc4bcZUBq520yZTnEvY" name="Page-1">
    <mxGraphModel dx="782" dy="411" grid="1" gridSize="10" guides="1" tooltips="1" connect="1" arrows="1" fold="1" page="1" pageScale="1" pageWidth="850" pageHeight="1100" math="0" shadow="0">
      <root>
        <mxCell id="0" />
        <mxCell id="1" parent="0" />
        <mxCell id="j-g2Afv0bqAXRoTFaU4J-1" value="" style="rounded=0;whiteSpace=wrap;html=1;" vertex="1" parent="1">
          <mxGeometry x="320" y="190" width="140" height="60" as="geometry" />
        </mxCell>
        <mxCell id="j-g2Afv0bqAXRoTFaU4J-2" value="ID Repository" style="text;html=1;strokeColor=none;fillColor=none;align=center;verticalAlign=middle;whiteSpace=wrap;rounded=0;" vertex="1" parent="1">
          <mxGeometry x="330" y="200" width="120" height="40" as="geometry" />
        </mxCell>
        <mxCell id="j-g2Afv0bqAXRoTFaU4J-3" value="" style="shape=cube;whiteSpace=wrap;html=1;boundedLbl=1;backgroundOutline=1;darkOpacity=0.05;darkOpacity2=0.1;" vertex="1" parent="1">
          <mxGeometry x="490" y="280" width="100" height="80" as="geometry" />
        </mxCell>
        <mxCell id="j-g2Afv0bqAXRoTFaU4J-4" value="Salt Generator" style="text;html=1;strokeColor=none;fillColor=none;align=center;verticalAlign=middle;whiteSpace=wrap;rounded=0;" vertex="1" parent="1">
          <mxGeometry x="520" y="320" width="60" height="30" as="geometry" />
        </mxCell>
        <mxCell id="j-g2Afv0bqAXRoTFaU4J-5" value="" style="rounded=0;whiteSpace=wrap;html=1;" vertex="1" parent="1">
          <mxGeometry x="340" y="90" width="80" height="50" as="geometry" />
        </mxCell>
        <mxCell id="j-g2Afv0bqAXRoTFaU4J-7" value="Identity Service" style="text;html=1;strokeColor=none;fillColor=none;align=center;verticalAlign=middle;whiteSpace=wrap;rounded=0;" vertex="1" parent="1">
          <mxGeometry x="350" y="100" width="65" height="25" as="geometry" />
        </mxCell>
        <mxCell id="j-g2Afv0bqAXRoTFaU4J-14" style="edgeStyle=orthogonalEdgeStyle;rounded=0;orthogonalLoop=1;jettySize=auto;html=1;exitX=0;exitY=0.5;exitDx=0;exitDy=0;entryX=0;entryY=0.5;entryDx=0;entryDy=0;" edge="1" parent="1" source="j-g2Afv0bqAXRoTFaU4J-8" target="j-g2Afv0bqAXRoTFaU4J-12">
          <mxGeometry relative="1" as="geometry" />
        </mxCell>
        <mxCell id="j-g2Afv0bqAXRoTFaU4J-8" value="" style="rounded=0;whiteSpace=wrap;html=1;" vertex="1" parent="1">
          <mxGeometry x="180" y="100" width="80" height="60" as="geometry" />
        </mxCell>
        <mxCell id="j-g2Afv0bqAXRoTFaU4J-9" value="" style="rounded=0;whiteSpace=wrap;html=1;" vertex="1" parent="1">
          <mxGeometry x="490" y="100" width="80" height="60" as="geometry" />
        </mxCell>
        <mxCell id="j-g2Afv0bqAXRoTFaU4J-10" value="" style="shape=cube;whiteSpace=wrap;html=1;boundedLbl=1;backgroundOutline=1;darkOpacity=0.05;darkOpacity2=0.1;" vertex="1" parent="1">
          <mxGeometry x="180" y="280" width="110" height="80" as="geometry" />
        </mxCell>
        <mxCell id="j-g2Afv0bqAXRoTFaU4J-12" value="VID Service" style="text;html=1;strokeColor=none;fillColor=none;align=center;verticalAlign=middle;whiteSpace=wrap;rounded=0;" vertex="1" parent="1">
          <mxGeometry x="190" y="115" width="60" height="30" as="geometry" />
        </mxCell>
        <mxCell id="j-g2Afv0bqAXRoTFaU4J-13" value="Credential Service" style="text;html=1;strokeColor=none;fillColor=none;align=center;verticalAlign=middle;whiteSpace=wrap;rounded=0;" vertex="1" parent="1">
          <mxGeometry x="500" y="110" width="60" height="40" as="geometry" />
        </mxCell>
        <mxCell id="j-g2Afv0bqAXRoTFaU4J-15" value="Credential Request Generator" style="text;html=1;strokeColor=none;fillColor=none;align=center;verticalAlign=middle;whiteSpace=wrap;rounded=0;" vertex="1" parent="1">
          <mxGeometry x="210" y="320" width="60" height="30" as="geometry" />
        </mxCell>
        <mxCell id="fHxiXUxJsZOqoH4QR18Y-1" value="" style="endArrow=classic;html=1;rounded=0;exitX=0.424;exitY=0.006;exitDx=0;exitDy=0;exitPerimeter=0;" edge="1" parent="1" source="j-g2Afv0bqAXRoTFaU4J-1" target="j-g2Afv0bqAXRoTFaU4J-5">
          <mxGeometry width="50" height="50" relative="1" as="geometry">
            <mxPoint x="380" y="180" as="sourcePoint" />
            <mxPoint x="430" y="150" as="targetPoint" />
          </mxGeometry>
        </mxCell>
        <mxCell id="fHxiXUxJsZOqoH4QR18Y-4" value="" style="endArrow=classic;html=1;rounded=0;entryX=0.5;entryY=1;entryDx=0;entryDy=0;exitX=0;exitY=0.5;exitDx=0;exitDy=0;" edge="1" parent="1" source="j-g2Afv0bqAXRoTFaU4J-1" target="j-g2Afv0bqAXRoTFaU4J-8">
          <mxGeometry width="50" height="50" relative="1" as="geometry">
            <mxPoint x="380" y="200" as="sourcePoint" />
            <mxPoint x="430" y="150" as="targetPoint" />
            <Array as="points">
              <mxPoint x="220" y="220" />
            </Array>
          </mxGeometry>
        </mxCell>
        <mxCell id="fHxiXUxJsZOqoH4QR18Y-5" value="" style="endArrow=classic;html=1;rounded=0;entryX=0.5;entryY=1;entryDx=0;entryDy=0;exitX=1;exitY=0.5;exitDx=0;exitDy=0;" edge="1" parent="1" source="j-g2Afv0bqAXRoTFaU4J-1" target="j-g2Afv0bqAXRoTFaU4J-9">
          <mxGeometry width="50" height="50" relative="1" as="geometry">
            <mxPoint x="380" y="200" as="sourcePoint" />
            <mxPoint x="430" y="150" as="targetPoint" />
            <Array as="points">
              <mxPoint x="530" y="220" />
            </Array>
          </mxGeometry>
        </mxCell>
        <mxCell id="fHxiXUxJsZOqoH4QR18Y-7" value="" style="endArrow=classic;html=1;rounded=0;entryX=-0.02;entryY=0.504;entryDx=0;entryDy=0;entryPerimeter=0;exitX=0.59;exitY=1.017;exitDx=0;exitDy=0;exitPerimeter=0;" edge="1" parent="1" source="j-g2Afv0bqAXRoTFaU4J-1" target="j-g2Afv0bqAXRoTFaU4J-3">
          <mxGeometry width="50" height="50" relative="1" as="geometry">
            <mxPoint x="380" y="200" as="sourcePoint" />
            <mxPoint x="430" y="150" as="targetPoint" />
            <Array as="points">
              <mxPoint x="403" y="320" />
            </Array>
          </mxGeometry>
        </mxCell>
        <mxCell id="fHxiXUxJsZOqoH4QR18Y-8" value="" style="endArrow=classic;html=1;rounded=0;exitX=0.386;exitY=0.994;exitDx=0;exitDy=0;exitPerimeter=0;" edge="1" parent="1" source="j-g2Afv0bqAXRoTFaU4J-1">
          <mxGeometry width="50" height="50" relative="1" as="geometry">
            <mxPoint x="380" y="200" as="sourcePoint" />
            <mxPoint x="290" y="320" as="targetPoint" />
            <Array as="points">
              <mxPoint x="374" y="320" />
              <mxPoint x="290" y="320" />
            </Array>
          </mxGeometry>
        </mxCell>
      </root>
    </mxGraphModel>
  </diagram>
</mxfile>
